<mxfile host="app.diagrams.net" modified="2024-03-04T17:19:32.566Z" agent="Mozilla/5.0 (Windows NT 10.0; WOW64) AppleWebKit/537.36 (KHTML, like Gecko) Chrome/86.0.4240.198 Safari/537.36" version="23.1.7" etag="byTzx-Lbdialyfyu2Tfd" type="github">
  <diagram name="第 1 页" id="qoAVQFgNsMRjQqSnzqVQ">
    <mxGraphModel>
      <root>
        <mxCell id="0" />
        <mxCell id="1" parent="0" />
      </root>
    </mxGraphModel>
  </diagram>
</mxfile>
